<?xml version="1.0" encoding="UTF-8" standalone="no"?>
<!DOCTYPE svg PUBLIC "-//W3C//DTD SVG 1.1//EN" "http://www.w3.org/Graphics/SVG/1.1/DTD/svg11.dtd">
<svg version="1.1" xmlns="http://www.w3.org/2000/svg" xmlns:xlink="http://www.w3.org/1999/xlink" preserveAspectRatio="xMidYMid meet" viewBox="0 0 250 250" width="250" height="250"><defs><path d="" id="emvX0OjGZ"></path><path d="M195.78 5.98C196.02 5.71 202.23 74.84 214.44 213.36C211.58 213.81 209.79 214.1 209.08 214.21C153.48 223.1 97.26 227.56 40.96 227.56C37.34 227.56 28.29 227.56 13.82 227.56C15.44 182.27 15.44 145.64 13.82 117.66C12.2 89.69 9.95 53.46 7.08 8.97C132.65 7.24 195.55 6.24 195.78 5.98Z" id="c4xpGDKwQX"></path><mask id="maskaiz3vh4AM" x="3.08" y="1.98" width="215.36" height="229.59" maskUnits="userSpaceOnUse"><rect x="3.08" y="1.98" width="215.36" height="229.59" fill="white"></rect><use xlink:href="#c4xpGDKwQX" opacity="1" fill="black"></use></mask><path d="M194.9 5.98L197.88 36.95L9.82 41.43L7.08 9.34L194.9 5.98Z" id="fv6gQ8kta"></path></defs><g><g><g><g><use xlink:href="#emvX0OjGZ" opacity="1" fill-opacity="0" stroke="#000000" stroke-width="1" stroke-opacity="1"></use></g></g><g><use xlink:href="#c4xpGDKwQX" opacity="1" fill="#ede57d" fill-opacity="1"></use><g mask="url(#maskaiz3vh4AM)"><use xlink:href="#c4xpGDKwQX" opacity="1" fill-opacity="0" stroke="#67603e" stroke-width="4" stroke-opacity="1"></use></g></g><g><use xlink:href="#fv6gQ8kta" opacity="1" fill="#e2df80" fill-opacity="1"></use><g><use xlink:href="#fv6gQ8kta" opacity="1" fill-opacity="0" stroke="#000000" stroke-width="0" stroke-opacity="1"></use></g></g></g></g></svg>